<?xml version="1.0" encoding="UTF-8"?>
<!DOCTYPE svg PUBLIC "-//W3C//DTD SVG 1.1//EN" "http://www.w3.org/Graphics/SVG/1.1/DTD/svg11.dtd">
<svg xmlns="http://www.w3.org/2000/svg" xml:space="preserve" width="2.26933in" height="0.704374in" version="1.1" style="shape-rendering:geometricPrecision; text-rendering:geometricPrecision; image-rendering:optimizeQuality; fill-rule:evenodd; clip-rule:evenodd"
viewBox="0 0 1453 451">
 <defs>
  <style type="text/css">
    .str0 {stroke:#009646;stroke-width:26.6701;stroke-linecap:round;stroke-linejoin:round}
    .fil0 {fill:none;fill-rule:nonzero}
  </style>
 </defs>
 <g>
  <g>
   <polyline class="fil0 str0" points="215,194 135,14 13,164 "/>
   <line class="fil0 str0" x1="135" y1="14" x2="71" y2= "438" />
  </g>
  <path class="fil0 str0" d="M419 189c0,0 106,-14 144,-92 21,-41 31,-84 31,-84"/>
  <line class="fil0 str0" x1="594" y1="13" x2="532" y2= "418" />
  <g>
   <path class="fil0 str0" d="M729 174c22,-16 50,-26 79,-26 76,0 138,62 138,138 0,76 -62,137 -138,137 -44,0 -84,-21 -109,-54"/>
   <polyline class="fil0 str0" points="981,13 763,13 741,115 "/>
  </g>
  <g>
   <g>
    <line class="fil0 str0" x1="1412" y1="53" x2="1171" y2= "396" />
   </g>
   <path class="fil0 str0" d="M1217 88c0,20 -16,36 -36,36 -20,0 -36,-16 -36,-36 0,-19 16,-35 36,-35 20,0 36,16 36,35"/>
   <path class="fil0 str0" d="M1439 361c0,19 -16,35 -35,35 -20,0 -36,-16 -36,-35 0,-20 16,-36 36,-36 19,0 35,16 35,36"/>
  </g>
  <line class="fil0 str0" x1="401" y1="422" x2="630" y2= "422" />
 </g>
</svg>
