<?xml version="1.0" encoding="UTF-8"?>
<!DOCTYPE svg PUBLIC "-//W3C//DTD SVG 1.1//EN" "http://www.w3.org/Graphics/SVG/1.1/DTD/svg11.dtd">
<svg xmlns="http://www.w3.org/2000/svg" xml:space="preserve" width="2.58346in" height="0.716634in" version="1.1" style="shape-rendering:geometricPrecision; text-rendering:geometricPrecision; image-rendering:optimizeQuality; fill-rule:evenodd; clip-rule:evenodd"
viewBox="0 0 1155 320">
 <defs>
  <style type="text/css">
    .str0 {stroke:#0e9bd0;stroke-width:18.6247;stroke-linecap:round;stroke-linejoin:round}
    .fil0 {fill:none;fill-rule:nonzero}
  </style>
 </defs>
 <g>
  <g>
   <polyline class="fil0 str0" points="150,141 94,15 9,120 "/>
   <line class="fil0 str0" x1="94" y1="15" x2="49" y2= "311" />
  </g>
  <g>
   <g>
    <line class="fil0 str0" x1="1127" y1="42" x2="958" y2= "282" />
   </g>
   <path class="fil0 str0" d="M990 67c0,14 -11,25 -25,25 -14,0 -25,-11 -25,-25 0,-14 11,-25 25,-25 14,0 25,11 25,25"/>
   <path class="fil0 str0" d="M1146 257c0,14 -12,25 -25,25 -14,0 -25,-11 -25,-25 0,-13 11,-25 25,-25 13,0 25,12 25,25"/>
  </g>
  <path class="fil0 str0" d="M318 113c-2,-6 -3,-13 -3,-20 0,-42 35,-77 77,-77 43,0 78,35 78,77 0,19 -9,41 -36,63 -37,32 -41,32 -87,65 -55,40 -56,79 -56,79"/>
  <line class="fil0 str0" x1="291" y1="300" x2="462" y2= "300" />
  <path class="fil0 str0" d="M784 76c-6,-8 -12,-16 -20,-24 -57,-57 -150,-57 -207,0 -58,58 -58,150 0,208 57,57 150,57 207,0 39,-39 52,-95 38,-144"/>
 </g>
</svg>
