<?xml version="1.0" encoding="UTF-8"?>
<!DOCTYPE svg PUBLIC "-//W3C//DTD SVG 1.1//EN" "http://www.w3.org/Graphics/SVG/1.1/DTD/svg11.dtd">
<svg xmlns="http://www.w3.org/2000/svg" xml:space="preserve" width="2.67624in" height="0.697886in" version="1.1" style="shape-rendering:geometricPrecision; text-rendering:geometricPrecision; image-rendering:optimizeQuality; fill-rule:evenodd; clip-rule:evenodd"
viewBox="0 0 6794 1772">
 <defs>
  <style type="text/css">
    .str0 {stroke:#f81010;stroke-width:105.771;stroke-linecap:round;stroke-linejoin:round}
    .fil0 {fill:none;fill-rule:nonzero}
  </style>
 </defs>
 <g>
  <g>
   <g>
    <line class="fil0 str0" x1="6634" y1="240" x2="5677" y2= "1602" />
   </g>
   <path class="fil0 str0" d="M5858 381c0,78 -63,141 -141,141 -78,0 -141,-63 -141,-141 0,-78 63,-141 141,-141 78,0 141,63 141,141"/>
   <path class="fil0 str0" d="M6741 1461c0,78 -63,141 -141,141 -78,0 -141,-63 -141,-141 0,-78 63,-141 141,-141 78,0 141,63 141,141"/>
  </g>
  <g>
   <polyline class="fil0 str0" points="921,1078 645,1704 53,1078 "/>
   <line class="fil0 str0" x1="645" y1="1704" x2="402" y2= "84" />
  </g>
  <path class="fil0 str0" d="M2599 728c93,-57 159,-156 171,-273 20,-200 -125,-378 -325,-399 -200,-20 -379,126 -399,326 -25,246 265,404 338,467 71,61 367,193 337,493 -24,229 -228,396 -458,373 -229,-23 -397,-228 -373,-457 13,-135 89,-248 196,-314"/>
  <path class="fil0 str0" d="M3138 1060c-12,-56 -19,-114 -19,-174 0,-460 373,-833 833,-833 460,0 833,373 833,833 0,460 -373,833 -833,833 -312,0 -585,-172 -727,-427"/>
 </g>
</svg>
