<?xml version="1.0" encoding="UTF-8" standalone="no"?> <svg xmlns="http://www.w3.org/2000/svg" viewBox="0 0 64 46.08"><defs><style>.cls-1{fill:#35353d;}</style></defs><title>Asset 60</title><g id="Layer_2" data-name="Layer 2"><g id="Layer_1-2" data-name="Layer 1"><path class="cls-1" d="M28.16,10.24A10.24,10.24,0,1,0,17.92,20.48,10.25,10.25,0,0,0,28.16,10.24ZM17.92,15.36A5.12,5.12,0,1,1,23,10.24,5.13,5.13,0,0,1,17.92,15.36Z"/><path class="cls-1" d="M46.08,20.48A17.89,17.89,0,0,0,32,27.34,17.91,17.91,0,0,0,0,38.4v5.12a2.56,2.56,0,0,0,2.56,2.56H61.44A2.56,2.56,0,0,0,64,43.52V38.4A17.94,17.94,0,0,0,46.08,20.48ZM58.88,41H5.12V38.4a12.8,12.8,0,0,1,23-7.68h7.68a12.8,12.8,0,0,1,23,7.68Z"/><path class="cls-1" d="M56.32,10.24A10.24,10.24,0,1,0,46.08,20.48,10.23,10.23,0,0,0,56.32,10.24ZM46.08,15.36a5.12,5.12,0,1,1,5.12-5.12A5.13,5.13,0,0,1,46.08,15.36Z"/></g></g></svg>