<?xml version="1.0" encoding="UTF-8" standalone="no"?> <svg width="22" height="22" viewBox="0 0 32 32" fill="none" xmlns="http://www.w3.org/2000/svg">
<path d="M28.8201 8.68991L17.8201 2.55991C17.295 2.19383 16.6702 1.99756 16.0301 1.99756C15.3899 1.99756 14.7652 2.19383 14.2401 2.55991L3.24007 8.68991C2.87453 8.95406 2.57689 9.3012 2.37162 9.70278C2.16636 10.1044 2.05933 10.5489 2.05933 10.9999C2.05933 11.4509 2.16636 11.8955 2.37162 12.2971C2.57689 12.6986 2.87453 13.0458 3.24007 13.3099L3.35007 13.3799L7.00007 15.4399V24.9999C7.00007 26.5699 9.26007 29.9999 16.0001 29.9999C22.7401 29.9999 25.0001 26.5699 25.0001 24.9999V15.4399L28.0001 13.7699V24.9999C28.0001 25.2651 28.1054 25.5195 28.293 25.707C28.4805 25.8946 28.7349 25.9999 29.0001 25.9999C29.2653 25.9999 29.5196 25.8946 29.7072 25.707C29.8947 25.5195 30.0001 25.2651 30.0001 24.9999V10.9999C29.9986 10.5493 29.8909 10.1053 29.6859 9.704C29.4809 9.30268 29.1843 8.95527 28.8201 8.68991ZM23.0001 24.9999C23.0001 25.3899 21.5901 27.9999 16.0001 27.9999C10.4101 27.9999 9.00007 25.3899 9.00007 24.9999V16.5499L14.2001 19.4399C14.7293 19.805 15.3571 20.0005 16.0001 20.0005C16.643 20.0005 17.2708 19.805 17.8001 19.4399L23.0001 16.5499V24.9999ZM27.6701 11.6699L16.6701 17.7899C16.4772 17.9268 16.2466 18.0004 16.0101 18.0004C15.7736 18.0004 15.5429 17.9268 15.3501 17.7899L4.35007 11.6699C4.24825 11.5904 4.16589 11.4888 4.10924 11.3727C4.05259 11.2566 4.02314 11.1291 4.02314 10.9999C4.02314 10.8707 4.05259 10.7433 4.10924 10.6272C4.16589 10.5111 4.24825 10.4094 4.35007 10.3299C4.35007 10.3299 15.3501 4.23991 15.3501 4.20991C15.5465 4.07268 15.7804 3.99908 16.0201 3.99908C16.2597 3.99908 16.4936 4.07268 16.6901 4.20991C16.6901 4.20991 27.6901 10.3299 27.6901 10.3299C27.7919 10.4094 27.8743 10.5111 27.9309 10.6272C27.9876 10.7433 28.017 10.8707 28.017 10.9999C28.017 11.1291 27.9876 11.2566 27.9309 11.3727C27.8743 11.4888 27.7919 11.5904 27.6901 11.6699H27.6701Z" fill="black"/>
</svg>
