<?xml version="1.0" encoding="UTF-8" standalone="no"?> <svg id="Layer_1" data-name="Layer 1" xmlns="http://www.w3.org/2000/svg" viewBox="0 0 512 512"><title>Home</title><path d="M426.667,490.667H320.014a21.333,21.333,0,0,1-21.333-21.333V320H213.32V469.333a21.333,21.333,0,0,1-21.333,21.333H85.333A42.716,42.716,0,0,1,42.667,448V201.492a63.592,63.592,0,0,1,24.705-50.517L216.706,34.817a63.947,63.947,0,0,1,78.587,0L444.627,150.975a63.59,63.59,0,0,1,24.706,50.517V448A42.716,42.716,0,0,1,426.667,490.667ZM341.347,448h85.32V201.492a21.2,21.2,0,0,0-8.236-16.84L269.1,68.494a21.318,21.318,0,0,0-26.2,0L93.569,184.652a21.2,21.2,0,0,0-8.235,16.84V448h85.32V298.667a21.333,21.333,0,0,1,21.333-21.333H320.014a21.333,21.333,0,0,1,21.333,21.333Z"/></svg>