<?xml version="1.0" encoding="UTF-8" standalone="no"?> <svg id="Layer_1" data-name="Layer 1" xmlns="http://www.w3.org/2000/svg" viewBox="0 0 24 24"><title>Artboard 24</title><rect x="5" y="8" width="2" height="2"/><rect x="9" y="8" width="2" height="2"/><rect x="13" y="8" width="2" height="2"/><rect x="17" y="8" width="2" height="2"/><rect x="5" y="11" width="2" height="2"/><rect x="9" y="11" width="2" height="2"/><rect x="13" y="11" width="2" height="2"/><rect x="17" y="11" width="2" height="2"/><rect x="5" y="14" width="2" height="2"/><rect x="9" y="14" width="2" height="2"/><rect x="13" y="14" width="2" height="2"/><rect x="17" y="14" width="2" height="2"/><rect x="5" y="17" width="2" height="2"/><rect x="9" y="17" width="2" height="2"/><rect x="13" y="17" width="2" height="2"/><path d="M20,1H16V4H14V3.37A1.37,1.37,0,0,0,12.63,2H11.37A1.37,1.37,0,0,0,10,3.37V4H8V1H4A3,3,0,0,0,1,4V20a3,3,0,0,0,3,3H20a3,3,0,0,0,3-3V4A3,3,0,0,0,20,1Zm1,19a1,1,0,0,1-1,1H4a1,1,0,0,1-1-1V4A1,1,0,0,1,4,3H6V6H18V3h2a1,1,0,0,1,1,1Z"/></svg>