<?xml version="1.0" encoding="iso-8859-1"?>
<!-- Generator: Adobe Illustrator 23.0.2, SVG Export Plug-In . SVG Version: 6.00 Build 0)  -->
<svg version="1.1" id="Layer_1" xmlns="http://www.w3.org/2000/svg" xmlns:xlink="http://www.w3.org/1999/xlink" x="0px" y="0px"
	 viewBox="0 0 29 26" style="enable-background:new 0 0 29 26;" xml:space="preserve">
<g id="school-7_1_">
	<polygon points="15,10 14,10 14,12 14,13 15,13 17,13 17,12 15,12 	"/>
	<path d="M27,25v-9h1l-1-2h-6v11h-1V9.067l1.529,0.815l0.941-1.766L15,4.133V3h3V0h-3h-1v4.133L6.529,8.117l0.941,1.766L9,9.067V25
		H8V14H2l-1,2h1v9H0v1h29v-1H27z M22,21v-1h3v1H22z M4,21v-1h3v1H4z M14.5,16c-1.933,0-3.5-1.567-3.5-3.5S12.567,9,14.5,9
		c1.933,0,3.5,1.567,3.5,3.5S16.433,16,14.5,16z M13,25v-5h3v5H13z"/>
</g>
</svg>
